<?xml version="1.0" standalone="no"?>
<!DOCTYPE svg PUBLIC "-//W3C//DTD SVG 20010904//EN"
 "http://www.w3.org/TR/2001/REC-SVG-20010904/DTD/svg10.dtd">
<svg version="1.0" xmlns="http://www.w3.org/2000/svg"
 width="200.000000pt" height="183.000000pt" viewBox="0 0 200.000000 183.000000"
 preserveAspectRatio="xMidYMid meet">

<g transform="translate(0.000000,183.000000) scale(0.100000,-0.100000)"
fill="#000000" stroke="none">
<path d="M801 1671 c-6 -10 -9 -57 -8 -105 2 -69 -1 -87 -13 -92 -8 -4 -54 -8
-102 -9 -48 -1 -93 -7 -101 -13 -9 -8 -13 -49 -15 -143 -3 -159 3 -171 80
-168 27 2 53 9 60 16 6 7 32 25 58 39 26 14 53 37 59 50 12 28 9 30 -24 8 -13
-9 -30 -12 -36 -8 -7 4 -9 3 -6 -3 4 -6 0 -14 -9 -17 -8 -3 -12 -2 -9 4 3 5
-26 -9 -66 -31 -39 -22 -73 -38 -76 -35 -5 5 43 37 186 121 46 28 86 56 89 64
3 9 -6 7 -29 -6 -19 -10 -38 -18 -44 -18 -5 0 -54 -24 -107 -53 -99 -53 -114
-59 -103 -42 3 6 1 10 -5 10 -6 0 -8 5 -5 10 3 6 11 10 16 10 6 0 7 -4 4 -10
-3 -5 -4 -10 -1 -10 3 0 82 43 175 96 106 60 185 112 212 140 42 43 36 41
-165 -71 -115 -63 -211 -114 -213 -111 -5 5 104 73 212 131 50 27 116 68 148
92 33 23 65 44 73 44 8 1 18 2 23 3 16 2 52 46 46 55 -3 5 -1 12 5 16 6 4 8
11 4 16 -4 6 -13 4 -24 -6 -10 -9 -23 -14 -29 -10 -6 3 -65 -26 -131 -66 -66
-39 -123 -69 -127 -66 -3 4 23 23 57 44 35 21 74 49 86 61 13 14 28 21 35 16
7 -4 9 -3 6 3 -7 11 61 58 70 49 3 -2 -9 -12 -26 -21 -48 -25 -36 -26 18 -2
27 12 47 25 44 30 -2 4 -29 7 -58 7 -48 0 -64 -6 -135 -51 -44 -28 -83 -49
-86 -46 -3 3 26 24 65 47 39 23 71 44 71 46 0 2 -31 4 -70 4 -58 0 -71 -3 -79
-19z m209 5 c0 -2 -21 -17 -47 -32 -27 -15 -58 -34 -70 -42 -13 -8 -23 -11
-23 -8 0 4 28 24 63 46 58 37 77 46 77 36z m20 -90 c0 -5 -137 -84 -207 -120
-66 -33 -69 -27 -5 10 167 99 212 122 212 110z"/>
<path d="M1240 1404 c-39 -39 -47 -53 -30 -45 21 10 22 9 6 -1 -70 -49 -97
-70 -92 -75 3 -3 -15 -19 -39 -35 -25 -17 -45 -32 -45 -34 0 -3 43 18 95 47
52 28 95 48 95 45 0 -4 9 -2 20 4 11 6 20 8 20 6 0 -3 -23 -17 -51 -32 -28
-14 -109 -61 -179 -104 -120 -74 -222 -130 -235 -130 -17 0 14 23 100 74 52
31 95 59 95 61 0 2 -24 -7 -52 -20 -29 -14 -63 -25 -75 -25 -12 0 -34 -5 -48
-12 -28 -13 -49 -2 -23 13 10 5 14 17 11 29 -6 24 -1 24 -57 0 -48 -22 -62
-36 -25 -27 38 10 58 -28 59 -107 0 -55 3 -67 12 -58 7 7 18 12 26 12 7 0 68
32 134 71 66 39 146 83 177 97 83 37 201 113 201 130 0 11 -3 12 -13 4 -7 -6
-26 -16 -42 -22 l-30 -10 25 20 c14 11 33 22 43 26 10 3 17 15 17 30 l0 25
-32 -22 c-17 -13 -28 -18 -24 -11 9 15 1 15 -27 1 -21 -10 -21 -10 -2 6 11 8
25 13 32 11 7 -3 13 -1 13 4 0 5 9 12 20 15 35 11 22 95 -15 95 -6 0 -35 -25
-65 -56z m80 11 c-7 -8 -18 -15 -24 -15 -6 0 -2 7 8 15 25 19 32 19 16 0z
m-160 -120 c-7 -8 -17 -15 -23 -15 -6 0 -2 7 9 15 25 19 30 19 14 0z m90 -38
c0 -10 -104 -79 -136 -91 -22 -7 -68 -32 -103 -55 -35 -22 -69 -41 -75 -40 -6
0 -2 6 8 12 11 7 47 33 80 58 34 26 77 54 96 64 34 17 34 17 20 0 -14 -17 -14
-17 15 -2 17 9 44 25 60 36 30 21 35 23 35 18z"/>
<path d="M864 1235 c-25 -46 -10 -64 35 -41 34 18 39 37 15 60 -22 23 -29 20
-50 -19z"/>
<path d="M1248 1206 c-321 -189 -392 -229 -423 -237 -40 -11 -46 -35 -12 -48
12 -5 74 -8 137 -8 155 0 161 4 159 105 -2 71 0 77 25 99 26 22 75 30 152 24
33 -3 56 31 52 77 l-3 40 -87 -52z m-163 -156 c-9 -14 -95 -63 -101 -57 -3 2
19 19 48 36 59 34 62 35 53 21z m-116 -53 c-14 -12 -119 -68 -119 -64 0 7 102
66 114 67 5 0 7 -2 5 -3z"/>
<path d="M1455 788 c-4 -73 -5 -164 -3 -203 l3 -70 48 -3 47 -3 0 204 0 204
-44 1 -44 2 -7 -132z"/>
<path d="M130 710 l0 -190 150 0 150 0 0 40 0 40 -101 0 -100 0 3 38 3 37 83
3 82 3 0 34 0 34 -82 3 -83 3 -3 33 -3 32 100 0 101 0 0 40 0 40 -150 0 -150
0 0 -190z"/>
<path d="M550 810 c-42 -10 -80 -52 -80 -88 0 -44 25 -69 82 -82 83 -19 88
-21 88 -35 0 -21 -51 -27 -103 -11 l-47 14 -16 -30 c-13 -25 -14 -32 -2 -39
23 -15 76 -21 143 -17 81 5 115 31 115 89 0 46 -31 74 -93 84 -64 10 -77 15
-77 30 0 26 66 32 121 10 10 -4 19 3 27 20 18 39 16 43 -38 54 -57 12 -70 12
-120 1z"/>
<path d="M832 790 c-66 -40 -90 -124 -57 -193 21 -43 55 -66 118 -79 46 -10
58 -9 99 10 25 11 51 29 57 41 10 18 7 23 -25 39 -36 18 -38 18 -56 0 -41 -41
-108 -7 -108 56 0 25 7 40 26 55 33 26 45 26 77 1 25 -20 27 -20 61 -3 40 18
41 21 23 43 -42 54 -151 69 -215 30z"/>
<path d="M1160 792 c-107 -53 -107 -206 0 -259 77 -40 161 -25 212 35 59 70
38 181 -41 221 -50 26 -124 27 -171 3z m139 -94 c26 -45 -7 -108 -56 -108 -39
0 -63 27 -63 70 0 75 83 102 119 38z"/>
<path d="M1672 801 c-48 -12 -58 -25 -44 -55 10 -23 14 -24 71 -19 62 6 91 -5
91 -33 0 -10 -15 -14 -54 -14 -96 0 -136 -26 -136 -87 1 -51 42 -83 107 -83
22 0 48 7 59 15 25 19 34 19 34 0 0 -11 12 -15 45 -15 l45 0 0 103 c0 110 -9
138 -51 169 -29 22 -117 32 -167 19z m118 -189 c0 -10 -5 -23 -12 -30 -19 -19
-66 -15 -77 6 -14 27 5 42 51 42 30 0 38 -4 38 -18z"/>
<path d="M256 414 c-6 -29 -11 -34 -24 -28 -49 21 -112 -16 -112 -67 0 -37 21
-50 73 -47 39 3 46 6 51 28 2 14 11 53 20 88 8 34 11 62 6 62 -4 0 -11 -16
-14 -36z m-24 -48 c34 -50 -54 -116 -92 -70 -10 11 -11 23 -4 42 16 44 74 61
96 28z"/>
<path d="M345 392 c-38 -8 -34 -17 5 -14 35 4 40 2 40 -17 0 -17 -7 -21 -32
-22 l-33 -1 30 -7 c30 -7 32 -11 20 -43 -4 -10 -3 -18 3 -18 12 0 36 95 28
108 -8 13 -36 19 -61 14z"/>
<path d="M297 323 c-4 -3 -7 -16 -7 -29 0 -25 34 -39 59 -23 13 8 12 9 -4 5
-11 -3 -27 -1 -35 4 -12 8 -13 13 -2 30 11 19 4 28 -11 13z"/>
</g>
</svg>
